/* XPM */
static char *c514ab6a18a842b6993f896ed4a97585QkxkuaeUOLgOdMAx[] = {
/* columns rows colors chars-per-pixel */
"64 64 141 2 ",
"   c #483E3B",
".  c #53443D",
"X  c #5A463B",
"o  c #5C493E",
"O  c #634B3D",
"+  c #6A4E3C",
"@  c #6F503D",
"#  c #73523E",
"$  c #78553F",
"%  c #4C4645",
"&  c #524641",
"*  c #564A45",
"=  c #5D4D44",
"-  c #574E4A",
";  c #5A4E49",
":  c #5D514B",
">  c #624E43",
",  c #694F40",
"<  c #655145",
"1  c #6C5344",
"2  c #63534A",
"3  c #6B5649",
"4  c #6D594C",
"5  c #735643",
"6  c #795742",
"7  c #755946",
"8  c #7C5A45",
"9  c #745B4B",
"0  c #7B5E4A",
"q  c #645751",
"w  c #655953",
"e  c #6C5C53",
"r  c #645C59",
"t  c #695E59",
"y  c #735D51",
"u  c #7D614E",
"i  c #756155",
"p  c #7C6352",
"a  c #746359",
"s  c #7B6659",
"d  c #835E46",
"f  c #885F45",
"g  c #815F49",
"h  c #866047",
"j  c #8A6147",
"k  c #84624B",
"l  c #8B654B",
"z  c #8D684F",
"x  c #946445",
"c  c #986646",
"v  c #9C6947",
"b  c #91664A",
"n  c #93694E",
"m  c #9C6C4C",
"M  c #846651",
"N  c #896750",
"B  c #866853",
"V  c #8C6A52",
"C  c #806A5C",
"Z  c #8C6E59",
"A  c #936D53",
"S  c #996E51",
"D  c #916F58",
"F  c #967056",
"G  c #9A7255",
"H  c #957259",
"J  c #9C755A",
"K  c #9F785C",
"L  c #A46E4A",
"P  c #A86F4A",
"I  c #A6714D",
"U  c #AB734D",
"Y  c #B0744D",
"T  c #B1754E",
"R  c #A37352",
"E  c #A47250",
"W  c #A17556",
"Q  c #A27556",
"!  c #A87350",
"~  c #AA7550",
"^  c #AC7550",
"/  c #AC7650",
"(  c #AD7751",
")  c #AE7852",
"_  c #AB7955",
"`  c #AC7955",
"'  c #AE7955",
"]  c #AE7A56",
"[  c #A17758",
"{  c #A4795A",
"}  c #A0785C",
"|  c #A37A5C",
" . c #AC7D5A",
".. c #AF7F5C",
"X. c #B17750",
"o. c #B27750",
"O. c #B07852",
"+. c #B07853",
"@. c #B27A53",
"#. c #B47951",
"$. c #B27A54",
"%. c #B27B55",
"&. c #B67D55",
"*. c #B87F57",
"=. c #B37E59",
"-. c #B37F5A",
";. c #B57F59",
":. c #B87F58",
">. c #9F7B60",
",. c #BB8057",
"<. c #B68059",
"1. c #B78059",
"2. c #B7825B",
"3. c #B5815C",
"4. c #B6835E",
"5. c #B7845F",
"6. c #B8815A",
"7. c #BC835B",
"8. c #BA845D",
"9. c #B8855F",
"0. c #BC855D",
"q. c #BF885F",
"w. c #B68561",
"e. c #B98761",
"r. c #BA8660",
"t. c #BA8761",
"y. c #BB8861",
"u. c #BC8862",
"i. c #BD8963",
"p. c #BF8A62",
"a. c #BE8A63",
"s. c #C0875F",
"d. c #C08A62",
"f. c #C18C64",
"g. c #C28C64",
"h. c #C38D65",
"j. c #C88D63",
"k. c #C38F68",
"l. c #C69067",
"z. c #C69169",
"x. c #C99269",
/* pixels */
"w 9 M G F [ J 9 3 l b l l n m y w z m j n n m 3 1 m m I v A m 5 5 m b c n b z + 9 G Q Q G m S 0 2 l b S G A z M 3 G J G K { K q ",
"7 3.3.w.5.e.0.N 6 U P T U P T k 9 U ] @.) U U 1 1 ) ] ] @.@.] 8 6 %.X.U P P L O d -.6.0.0.8.=.0 5 0.:.8.%.] _ 8 V d.e.e.e.d.w.M ",
"z e.e.5.e.a.a.V 6 T U U I L L 5 u ) U @.U U U 6 7 &.R I I ] ] < , X.X.X.P P ~ > 5 S -.0.0.8.-.d f -.8.*.%._ _ 5 k h.d.a.g.a.e.N ",
"3 4 l F F z F u < j g l f d 8 w < k k z z k h 3 1 k 2 3 3 0 > * = b l f = 8 f > = 8 A G A N l 9 1 l l A A V l > 2 A G F H H | V ",
"F A A u < V A z A V N 9 1 V } } V p A 4 1 j d l m j 8 3 2 l l k g l A 5 = f f f f b l 3 5 l b b l l z 9 3 z z A A n z 5 9 H F [ ",
"3.5.3.k 8 0.1.1.-.-.7.7 d e.e.e.y.5.9.k # U L I U U P 5 < U ~ L E U %.g = P P U T U P 6 5 ( ~ ~ U U U g 9 -.6. .-.6.0.k k g.a.1.",
"-.w.9.k k 6.1.1.-.-.8.g k a.e.r.a.9.y.z O Y I I I U I 6 . L x c c E ~ 5 = P U X.X.U L 6 5 X.E P U L U 8 5 -.%.] -.-.9.j z j.9.0.",
"A A k 4 7 n n z V l V 0 4 A A g V l u 8 o j 6 h j 7 7 3 * d k l l l 0 3 ; 8 f d b f f , > l 1 y k k k 4 = V b N 7 k u < 3 A A } ",
"w j n n n n z 7 9 A V J A G G + < n z n F m z 2 u J J J H F K k 5 S G G M k A 6 > d l l f f 8 4 1 l l l h h l 4 < A n n n k l 0 ",
"k R %.6.1.@.6.z 1 -.e.3._ 3.e.k 1 %.) ) 3.1.<.h V g.a.i.w.w.y.V g 0.:.:.-.6.6.f + X.U U P L P 9 # U U I I U U 5 6 %.) ] ] ) &.V ",
"n %.G &.0.,.6.A ; -.3.3. .1.0.N = ] _ %.<.) <.u B g.y.y.w.4.y.V 6 d.8.-.-.-.:.5 + P P L P P U 3 7 T U U U I U 8 > ] ) ] _ L ) A ",
"u A k k F k k 0 ; A z l k V A s - k n z l u 8 7 3 A G Z M V l 3 & d n A n b A > > d f d 6 f b 2 1 l j z 8 8 j 4 * k h u u 2 y 0 ",
"A A S 2 4 G G n A A 8 u = k k A p z n 8 7 G A F F k l 4 4 G G G A S S 5 = d f 5 0 l f 4 = g k b N l l 2 4 Z V K | J J e 0 A V H ",
"3.1.1.0 k 6.6.6.1. .1.k u %.] 1.1.1.1.k u 1.1.] 3.1.1.k 8 0.0.6.-.8.0.z X P L x P P U y & P U ( ( ] X.3 B i.a.g.a.g.g.9 k 9.%.-.",
"] ~ -.d k 1.1.1.1.] -.k f %.] -.%.%.] k = 1.5.1.3.3.w.z 7 9.5.<.-.-.0.b O L L L Y U P 1 > ( c ~ ~ ~ ( , p i.a.y.a.l.z.B g _ ~ ] ",
"l g S 9 7 A l k V 9 V 4 4 k u k F k z u : n z k k n m u 4 z 8 l V l A 0 X d $ 1 8 d d + O l f b 0 g g - 9 J A H H F } N 2 6 g V ",
"+ d b l l n l > 3 n S N n l f 9 y M 0 V K S A 0 = l j f k b x 1 + k z z z z n 9 9 G F A A A z u 1 j l A l l 8 e e z G A J A n Z ",
"6 U ( ) ( X.#.1 9 +.( ( ~ U X.0 4 r.e.r.d.d.e.l 5 %.%.] U ] ] 8 1 ( 1.1.1.] @.8 8 5.8.-.0.0.9.z 1 ( U ( ) m I 8 k 9.<.9.6.<.<.G ",
"6 U I U T T @.5 5 ~ ( %.( +.*.d > r.r.r.d.d.d.V 6 &.] ( ( ] ( 1 7 1.1.1.%. .] k 1 q.9.9.d.d.9.V = ( ~ ( ~ m U 6 k 9.<.<.9.3.<.G ",
"3 6 k l f l k . , j j k V g d 6 = V g A G V G 5 > h d j l z l < 4 V n F S z z 9 2 G A N G G G p ; d k z k 9 j < 1 l A F A V M p ",
"A 9 l 0 2 k N k A b j 0 ; b f f l d f 1 * + f l j d j 1 1 n z k V k M 7 u J F F | | | u 4 J V p J H H 9 9 K G G l 9 l 9 0 A l A ",
"] _ ] 0 7 -.-.1.-.-.-.k & ( X.X.P L L 6 > ( T U U I U 6 h &.%.] ( _ %.u V x.5.a.z.a.z.V k z.x.z.k.k.z.B 0 a.5.5.3.3.e.V l 6.%.&.",
"%. .%.7 7 -.-.-.' ] 9.N . P ( U U P E 6 + T Y P U I U @ 1 %.%.%.) ] ) u Z x.w.a.l.z.z.V V k.x.g.1.i.k.N 0 a.9.5.3.w.a.z f 6.-.-.",
"H k G 9 9 k z V A z A 0 % 5 b d k 8 d 1 X d f g d 5 5 1 * 8 k z k u k 2 i G F B F H K s e H K A J K H 9 0 A A F H V G 9 3 G l F ",
"r 1 9 u l + j 7 2 f l l k b l 2 9 l z A A j A k - V H | K G F w 1 z z u k z n 1 1 n n n n k l 6 y S V A G l N s r M H K K } H s ",
"; v L I T U U 5 , X.U ( U ( X.6 k %.] ] 6.6.*.l > w.i.d.y.5.y.k $ ] %.&.U R ~ 5 $ X.X.U ( U X.8 0 8.e.5.e.3.-.A 2 a.k.k.g.g.z.Z ",
"- x m L U T T 6 5 Y U U U ( ( 1 7 %.%.' &.6.1.j u g.g.i.a.a.d.A 8 ] ] %.%.) I 1 8 @.U ( U U ( 6 7 -...e.e.0.9.V 4 z.z.z.z.a.a.s ",
"; 6 k l l d f 1 X f l 0 k 8 j 2 y u 0 9 M V V 3 9 F J J V K F p = 8 j n A 7 k ; 4 k 5 7 k k b 1 1 l N G J H A M 2 K J >.K N A s ",
"H G W k 9 A A A k l N 3 < k n z 0 l A k % M A N B A G 0 3 [ A F F G F i e F K Z H J H M 2 A B H H A H e a N 9 u V A M q : N A B ",
"6.9.9.l k -.3.-.-.] _ k 1 ~ ] @.( E ] l * -.w.3.3.a.g.k l g.e.e.y.y.5.k N z.a.y.z.x.x.F u i.e.a.e.e.a.N g 6.%.&.1.&.-.k 3 1.5.3.",
"1.9.9.M 7 ] 9.8.%.e.9.N   L ~ %.] I ( f 7 3.3.w.e.s.s.k k g.a.e.e.y.0.z B z.a.z.i.x.x.F 0 d.e.e.e.a.k.N 7 ,.&.,.&.&.&.g = 1.-.R ",
"V F n 9 w 9 V G N 0 A 0 > 5 5 l S g g 6 1 V V V G A A 1 = l V J H V F u 9 K H C D F [ 9 = A M Z D V G u < k k 0 A k l 0 & A A N ",
": k A A } A [ s y H K H K D G p 7 z j b j j k = 9 J J H k V F B u z 3 d l k n 5 1 n n n z k 9 : 9 l j A k u l u : k F K H H H p ",
"k 8.w.3.-.8.j.l 0 -.w.i.e.e.i.0 @ %.1.@.U ) U l 7 9.a.w.4.w.y.k 5 %.T #.@.U U 1 7 6.6.1.%.%.] 7 8 6.U %.%.] ] h < a.y.y.9.y.y.J ",
"V e.3.3.w.d.j.k k g.u.e.w.w.e.V h 1.3.U _ ) _ k u g.y.1. . .5.1 6 ] U ) ) U I < 7 1.1. .1.-.-.k 1 &.] @.%.~ ] h . a.a.y.a.w.a.W ",
"4 V V V A A 0 9 2 H K H K N A p 5 n k u V l k 4 1 F J J F M 0 3 @ l l j z l l 3 2 l k 4 0 z n 0 : 9 5 k k f 8 7 * u V F F p B B ",
"A l F 7 9 G A Q G 0 V e a V D >.| K | a s J F 3.K K K u u G l V k k z 9 < 8 h j j h j 5 : J J K K W K 9 . l z n n k z e 3 A n A ",
"E ~ 0.d k 0.-.-.8.9.3.4 y y.i.k.l.x.z.z B a.a.a.a.a.z.p z 0.6.1.%.1.1.k + L U U U L U # u a.a.y.w.g.g.A + %.( ] %.~ ) 8 1 ,.%.&.",
"I ] 6.d 7 e.3.-.-.8.-.y M k.k.k.x.x.l.A M a.a.a.a.a.a.p n 0.5.1.1.4.%.h O U U U U U I @ V a.y.y.y.y.z.A 8 %.] ] ] U ] k 1 1.%.%.",
"k k S 9 4 N A A y N A M M H >.>.K F z 9 y H K K H F K e 7 A V n A l k @ . 8 j j z j 7 = p K A k B A K 0 < z A l k k l M < 8 k l ",
"; f b n l d d 0 2 l l b A d B t 9 J n A F z B 3 7 z A G n G A 1 o h h l l h j 9 4 b l k 9 d k 1 O l l b f u k 2 3 j 5 l n l j 9 ",
"# L P v P P U 0 + U U c U U L 2 u q.1.1.5.1.1.k 8 1.0.6.1.1.,.k @ I I I I I @.j 7 *.%.) ] ] ) 8 5 @.] -.%.&.6.g # U L U U U I h ",
"6 v v I U U P d 5 U U L L L U 6 9 5.] 9.5.9.5.k 5 1.6.9.,.%.6.h @ ~ I I I U #.h 1 &.%.U U _ ) 7 8 &.%.%.&.1.*.f O U I L U U U d ",
"q 1 5 k g g d y t 7 j k 6 d f 4 w u 3 M A V k 7 7 A V l A z z 7 o j j l k d j 9 * 0 0 k k l z < 3 l g V n A n 9 o j 8 8 j d d 1 ",
"N l l 5 < l l n G n n 9 = j h k n l j 0 < n k k k k p : 9 V z V H z V u 7 z l n A n n 5 0 J G F M N H e 2 z z G S A A i ; 5 l n ",
"~ X.@.d 5 ( ( U U ) U 9 5 L L I U L L d < I R U I ) ) 7 u 1.1.w.1.5.q.n h ) ] ] &.#.o.8 k g.p.p.1.3.w.B 9 7.-.0.6.1.6.k 5 v m I ",
"P ( %.l 1 U P I U U U 8 1 L I I U U I u : ] %.] _ 1.,.8 u 9.1.1.1.3.q.l @ ) ~ ) %.%.] 8 k p.g.5. .w.3.V 7 6.6.6.-.-.9.u + L m x ",
"g g l 7 2 A j V k l k < < $ 8 8 h 8 5 3 : k k z k k l 1 1 F A Z B z A 9 2 8 k z k 1 k 1 9 G G V N k V 4 3 S z N A z A a r 8 8 k ",
"0 A 4 M N N z 9 3 G N A G V A 9 1 K A V A V A 9 9 K K F B J J 4 2 F G J | K F i u G A H G V B 2 : d f d $ d $ = 2 G A H K F A 9 ",
"l -.~ m I ] -.d 8 9.8.8.3.1.0.l k q.q.0.e.w.a.k u z.x.x.z.z.z.p u y.l.z.a.q.0.u M g.q.a.a.9.<.u O U L L P U U $ k a.e.1. .a.a.N ",
"g ] _ ] -.%.] j 5 e.e.e.9.h.d.k 0 5.5.5.9.9.9.k p x.z.x.z.z.z.V V l.a.y.a.a.a.k z a.g.a.a.y.5.u + T P P L I U # z 0.9.1.5.e.0.u ",
"3 A 5 0 A j 5 9 : M N } [ V l 1 7 z k z G F A p e H Z K K K J 9 u H J Z Z F J p 9 J F F J F F 7 X f f 8 8 # d < 9 A A A V A A 2 ",
"D A J 9 u G A G H V A C a k z n n l n 4 3 n A l N z l 7 3 G F K A u n 4 3 z z F z V n 9 7 k k l l j n 5 1 l 9 F F n z 1 9 K F V ",
"w.e.w.A N h.9.9.w.3.w.B 0 6.1.%.-. .] 8 5 1.&.&.] %.%.8 8 1.1.q.0.6.2.k < <.<.) ] _ 1.k 5 %.) 1.*.&.&.d u e.3.1.<.9.] k l g.a.a.",
"r.e.i.H N j.e.w.w.3.w.B 7 7.1.-.%._ ] g 6 &.) ) ] %.#.h 8 5.1.5.s.0.0.z u 6.1.] _ _ 1.h @ ] ) 1.%.&.&.f k 9.-.1.<.9.1.l V g.y.w.",
"H K >.y 2 } J A B V V 9 < V k A z k A 3 , k k h l b l < 7 z z F F u A 4 4 z V M V A z u 3 j j z n l l 1 7 V V l M z G 9 < V Z H ",
"< b S A 9 l l 0 : H J K K J H s < 5 j j d j j @ @ A A J A k z i 9 j b l b d 0 X 3 u 8 z z h 5 = 9 8 l A G k k 2 < M | | F H F l ",
"g %.X.@.%.( %.g < z.a.a.k.a.z.V + v U U P P T $ 3 9.6.2.9.1.9.M 7 I L U U U U 5 @ %.X.U m v X.8 3 E I _ %.&.%.8 7 3.9.e.a.e.w.K ",
"g U _ @.( ~ @.d 0 l.a.a.y.z.z.D + L T U v v U 8 O 3.5.5.9.9.2.k @ I L U U U I 8 < o.) I I m @.j < I ~ %.&.) ] h 9 a.a.e.a.9.w.{ ",
"= d l k l f l 3 e u F J H Z J p < j l 8 8 5 $ 1 < A V A J n G 3 2 1 8 j j d d 9 * j j h z 8 u u 2 1 k l l k l 1 4 G V F K F H H ",
"b b n , 1 l d l 9 7 j 7 4 7 z V F F k = 7 A z V V k 8 2 9 n F K J J | k 5 n A A H J G 7 2 i Z H K H H u 0 J J F V G G p 1 j j l ",
"#.X.T 6 6 I v U U X.U 5 7 3.5.0.s.s.) k 8 1.] ] %.1.%.0 k y.a.y.y.i.y.F k 5.<.5.6.0.s.z u e.1.w.w.w.x.B k g.0.y.q.d.a.V 8 U U U ",
"U U U 8 1 I U m U ( U 6 = 1.0.0.q.9.1.l 5 1.] ] ] 1.9.k V a.i.a.g.g.w.V 9 9.1.3.3.9.g.7 k a.w.w.a.a.x.Z k d.9.d.a.a.a.z 6 X.T U ",
"j b b 5 1 0 6 j b n j 9 : F F F G R F 7 = z z z z k z 0 4 G K K | H k s 4 B k V G W | 4 p H K K K J J k 9 [ F G  .G V 4 O b c z "
};
